<?xml version="1.0" encoding="UTF-8" standalone="no"?>
<!DOCTYPE svg PUBLIC "-//W3C//DTD SVG 1.1//EN" "http://www.w3.org/Graphics/SVG/1.1/DTD/svg11.dtd">
<svg width="100%" height="100%" viewBox="0 0 1000 863" version="1.1" xmlns="http://www.w3.org/2000/svg" xmlns:xlink="http://www.w3.org/1999/xlink" xml:space="preserve" xmlns:serif="http://www.serif.com/" style="fill-rule:evenodd;clip-rule:evenodd;stroke-linecap:round;stroke-linejoin:round;stroke-miterlimit:1.5;">
    <g transform="matrix(1,0,0,1,0,-70)">
        <rect id="Artboard1" x="0" y="0" width="1000" height="1000" style="fill:none;"/>
        <g id="Artboard11" serif:id="Artboard1">
            <g id="Layer1">
                <g transform="matrix(1.10138,0,0,1.10138,-45.3606,-5.13671)">
                    <g transform="matrix(1,0,0,1,-59.8529,-244.079)">
                        <circle cx="478.701" cy="810.596" r="35.735" style="fill:rgb(128,237,157);stroke:white;stroke-width:7.57px;"/>
                    </g>
                    <g transform="matrix(1,0,0,1,-314.688,-259.978)">
                        <circle cx="478.701" cy="810.596" r="35.735" style="fill:rgb(128,237,157);stroke:white;stroke-width:7.57px;"/>
                    </g>
                    <g transform="matrix(1,0,0,1,-354.617,-239.774)">
                        <circle cx="478.701" cy="810.596" r="35.735" style="fill:rgb(128,237,157);stroke:white;stroke-width:7.57px;"/>
                    </g>
                    <g transform="matrix(0.801777,0,0,0.801777,-262.616,-142.118)">
                        <circle cx="478.701" cy="810.596" r="35.735" style="fill:rgb(128,237,157);stroke:white;stroke-width:9.44px;"/>
                    </g>
                    <g transform="matrix(0.801777,0,0,0.801777,-258.613,-30.2395)">
                        <circle cx="478.701" cy="810.596" r="35.735" style="fill:rgb(128,237,157);stroke:white;stroke-width:9.44px;"/>
                    </g>
                    <g transform="matrix(1,0,0,1,-100.739,-561.754)">
                        <circle cx="478.701" cy="810.596" r="35.735" style="fill:rgb(128,237,157);stroke:white;stroke-width:7.57px;"/>
                    </g>
                    <g transform="matrix(1,0,0,1,-155.375,-589.324)">
                        <circle cx="478.701" cy="810.596" r="35.735" style="fill:rgb(128,237,157);stroke:white;stroke-width:7.57px;"/>
                    </g>
                    <g transform="matrix(1,0,0,1,-216.747,-589.324)">
                        <circle cx="478.701" cy="810.596" r="35.735" style="fill:rgb(128,237,157);stroke:white;stroke-width:7.57px;"/>
                    </g>
                    <g transform="matrix(0.855617,0,0,0.855617,-178.206,-484.3)">
                        <circle cx="478.701" cy="810.596" r="35.735" style="fill:rgb(128,237,157);stroke:white;stroke-width:8.84px;"/>
                    </g>
                    <g transform="matrix(0.801777,0,0,0.801777,-180.275,-401.875)">
                        <circle cx="478.701" cy="810.596" r="35.735" style="fill:rgb(128,237,157);stroke:white;stroke-width:9.44px;"/>
                    </g>
                    <g transform="matrix(1,0,0,1,-310.899,-517.854)">
                        <circle cx="478.701" cy="810.596" r="35.735" style="fill:rgb(128,237,157);stroke:white;stroke-width:7.57px;"/>
                    </g>
                    <g transform="matrix(1,0,0,1,-326.031,-477.438)">
                        <circle cx="478.701" cy="810.596" r="35.735" style="fill:rgb(128,237,157);stroke:white;stroke-width:7.57px;"/>
                    </g>
                    <g transform="matrix(1,0,0,1,-346.634,-426.699)">
                        <circle cx="478.701" cy="810.596" r="35.735" style="fill:rgb(128,237,157);stroke:white;stroke-width:7.57px;"/>
                    </g>
                    <g transform="matrix(0.855617,0,0,0.855617,-321.144,-268.769)">
                        <circle cx="478.701" cy="810.596" r="35.735" style="fill:rgb(128,237,157);stroke:white;stroke-width:8.84px;"/>
                    </g>
                    <g transform="matrix(0.798835,0,0,0.798835,-282.671,-176.079)">
                        <circle cx="478.701" cy="810.596" r="35.735" style="fill:rgb(128,237,157);stroke:white;stroke-width:9.47px;"/>
                    </g>
                    <g transform="matrix(1,0,0,1,-216.747,-545.567)">
                        <circle cx="478.701" cy="810.596" r="35.735" style="fill:rgb(128,237,157);stroke:white;stroke-width:7.57px;"/>
                    </g>
                    <g transform="matrix(1,0,0,1,-239.43,-498.168)">
                        <circle cx="478.701" cy="810.596" r="35.735" style="fill:rgb(128,237,157);stroke:white;stroke-width:7.57px;"/>
                    </g>
                    <g transform="matrix(1,0,0,1,-275.165,-477.438)">
                        <circle cx="478.701" cy="810.596" r="35.735" style="fill:rgb(128,237,157);stroke:white;stroke-width:7.57px;"/>
                    </g>
                    <g transform="matrix(1,0,0,1,-288.216,-426.699)">
                        <circle cx="478.701" cy="810.596" r="35.735" style="fill:rgb(128,237,157);stroke:white;stroke-width:7.57px;"/>
                    </g>
                    <g transform="matrix(1,0,0,1,-317.425,-390.964)">
                        <circle cx="478.701" cy="810.596" r="35.735" style="fill:rgb(128,237,157);stroke:white;stroke-width:7.57px;"/>
                    </g>
                    <g transform="matrix(1,0,0,1,-333.682,-357.77)">
                        <circle cx="478.701" cy="810.596" r="35.735" style="fill:rgb(128,237,157);stroke:white;stroke-width:7.57px;"/>
                    </g>
                    <g transform="matrix(0.490396,0,0,0.490396,-109.212,82.7735)">
                        <circle cx="478.701" cy="810.596" r="35.735" style="fill:rgb(128,237,157);stroke:white;stroke-width:15.43px;"/>
                    </g>
                    <g transform="matrix(1,0,0,1,-170.01,-526.02)">
                        <circle cx="478.701" cy="810.596" r="35.735" style="fill:rgb(128,237,157);stroke:white;stroke-width:7.57px;"/>
                    </g>
                    <g transform="matrix(1,0,0,1,-70.5015,-383.081)">
                        <circle cx="478.701" cy="810.596" r="35.735" style="fill:rgb(128,237,157);stroke:white;stroke-width:7.57px;"/>
                    </g>
                    <g transform="matrix(1,0,0,1,-120.937,-402.917)">
                        <circle cx="478.701" cy="810.596" r="35.735" style="fill:rgb(128,237,157);stroke:white;stroke-width:7.57px;"/>
                    </g>
                    <g transform="matrix(1,0,0,1,-49.4675,-346.331)">
                        <circle cx="478.701" cy="810.596" r="35.735" style="fill:rgb(128,237,157);stroke:white;stroke-width:7.57px;"/>
                    </g>
                    <g transform="matrix(1,0,0,1,-112.873,-346.331)">
                        <circle cx="478.701" cy="810.596" r="35.735" style="fill:rgb(128,237,157);stroke:white;stroke-width:7.57px;"/>
                    </g>
                    <g transform="matrix(1,0,0,1,-59.8529,-295.713)">
                        <circle cx="478.701" cy="810.596" r="35.735" style="fill:rgb(128,237,157);stroke:white;stroke-width:7.57px;"/>
                    </g>
                    <g transform="matrix(1,0,0,1,-95.5875,-259.978)">
                        <circle cx="478.701" cy="810.596" r="35.735" style="fill:rgb(128,237,157);stroke:white;stroke-width:7.57px;"/>
                    </g>
                    <g transform="matrix(1,0,0,1,-138.961,-239.127)">
                        <circle cx="478.701" cy="810.596" r="35.735" style="fill:rgb(128,237,157);stroke:white;stroke-width:7.57px;"/>
                    </g>
                    <g transform="matrix(1,0,0,1,-187.202,-208.581)">
                        <circle cx="478.701" cy="810.596" r="35.735" style="fill:rgb(128,237,157);stroke:white;stroke-width:7.57px;"/>
                    </g>
                    <g transform="matrix(1,0,0,1,-95.5875,-205.357)">
                        <circle cx="478.701" cy="810.596" r="35.735" style="fill:rgb(128,237,157);stroke:white;stroke-width:7.57px;"/>
                    </g>
                    <g transform="matrix(1,0,0,1,-84.8913,-157.669)">
                        <circle cx="478.701" cy="810.596" r="35.735" style="fill:rgb(128,237,157);stroke:white;stroke-width:7.57px;"/>
                    </g>
                    <g transform="matrix(0.507216,0,0,0.507216,143.152,324.181)">
                        <circle cx="478.701" cy="810.596" r="35.735" style="fill:rgb(128,237,157);stroke:white;stroke-width:14.92px;"/>
                    </g>
                    <g transform="matrix(1,0,0,1,-156.36,-182.471)">
                        <circle cx="478.701" cy="810.596" r="35.735" style="fill:rgb(128,237,157);stroke:white;stroke-width:7.57px;"/>
                    </g>
                    <g transform="matrix(1,0,0,1,-138.961,-146.737)">
                        <circle cx="478.701" cy="810.596" r="35.735" style="fill:rgb(128,237,157);stroke:white;stroke-width:7.57px;"/>
                    </g>
                    <g transform="matrix(1,0,0,1,-147.68,-111.002)">
                        <circle cx="478.701" cy="810.596" r="35.735" style="fill:rgb(128,237,157);stroke:white;stroke-width:7.57px;"/>
                    </g>
                    <g transform="matrix(1,0,0,1,-166.385,-75.2675)">
                        <circle cx="478.701" cy="810.596" r="35.735" style="fill:rgb(128,237,157);stroke:white;stroke-width:7.57px;"/>
                    </g>
                    <g transform="matrix(0.855617,0,0,0.749687,-92.1093,154.425)">
                        <circle cx="478.701" cy="810.596" r="35.735" style="fill:rgb(128,237,157);stroke:white;stroke-width:9.41px;"/>
                    </g>
                    <g transform="matrix(1,0,0,1,-111.945,-121.934)">
                        <circle cx="478.701" cy="810.596" r="35.735" style="fill:rgb(128,237,157);stroke:white;stroke-width:7.57px;"/>
                    </g>
                    <g transform="matrix(0.855617,0,0,0.888043,-66.6936,19.4852)">
                        <circle cx="478.701" cy="810.596" r="35.735" style="fill:rgb(128,237,157);stroke:white;stroke-width:8.68px;"/>
                    </g>
                    <g transform="matrix(0.801777,0,0,0.801777,-60.6235,161.425)">
                        <circle cx="478.701" cy="810.596" r="35.735" style="fill:rgb(128,237,157);stroke:white;stroke-width:9.44px;"/>
                    </g>
                    <g transform="matrix(1,0,0,1,-131.322,-295.713)">
                        <circle cx="478.701" cy="810.596" r="35.735" style="fill:rgb(128,237,157);stroke:white;stroke-width:7.57px;"/>
                    </g>
                    <g transform="matrix(1,0,0,1,-174.696,-286.301)">
                        <circle cx="478.701" cy="810.596" r="35.735" style="fill:rgb(128,237,157);stroke:white;stroke-width:7.57px;"/>
                    </g>
                    <g transform="matrix(1,0,0,1,-227.83,-238.411)">
                        <circle cx="478.701" cy="810.596" r="35.735" style="fill:rgb(128,237,157);stroke:white;stroke-width:7.57px;"/>
                    </g>
                    <g transform="matrix(1,0,0,1,-140.969,-346.331)">
                        <circle cx="478.701" cy="810.596" r="35.735" style="fill:rgb(128,237,157);stroke:white;stroke-width:7.57px;"/>
                    </g>
                    <g transform="matrix(1,0,0,1,-179.782,-490.285)">
                        <circle cx="478.701" cy="810.596" r="35.735" style="fill:rgb(128,237,157);stroke:white;stroke-width:7.57px;"/>
                    </g>
                    <g transform="matrix(1,0,0,1,-216.747,-441.704)">
                        <circle cx="478.701" cy="810.596" r="35.735" style="fill:rgb(128,237,157);stroke:white;stroke-width:7.57px;"/>
                    </g>
                    <g transform="matrix(1,0,0,1,-239.43,-390.964)">
                        <circle cx="478.701" cy="810.596" r="35.735" style="fill:rgb(128,237,157);stroke:white;stroke-width:7.57px;"/>
                    </g>
                    <g transform="matrix(1,0,0,1,-275.165,-346.331)">
                        <circle cx="478.701" cy="810.596" r="35.735" style="fill:rgb(128,237,157);stroke:white;stroke-width:7.57px;"/>
                    </g>
                    <g transform="matrix(1,0,0,1,-299.901,-310.596)">
                        <circle cx="478.701" cy="810.596" r="35.735" style="fill:rgb(128,237,157);stroke:white;stroke-width:7.57px;"/>
                    </g>
                    <g transform="matrix(1,0,0,1,-339.83,-290.392)">
                        <circle cx="478.701" cy="810.596" r="35.735" style="fill:rgb(128,237,157);stroke:white;stroke-width:7.57px;"/>
                    </g>
                    <g transform="matrix(1,0,0,1,-274.758,-238.411)">
                        <circle cx="478.701" cy="810.596" r="35.735" style="fill:rgb(128,237,157);stroke:white;stroke-width:7.57px;"/>
                    </g>
                    <g transform="matrix(1,0,0,1,-314.688,-218.206)">
                        <circle cx="478.701" cy="810.596" r="35.735" style="fill:rgb(128,237,157);stroke:white;stroke-width:7.57px;"/>
                    </g>
                    <g transform="matrix(1,0,0,1,-284.922,-182.471)">
                        <circle cx="478.701" cy="810.596" r="35.735" style="fill:rgb(128,237,157);stroke:white;stroke-width:7.57px;"/>
                    </g>
                    <g transform="matrix(1,0,0,1,-324.851,-162.267)">
                        <circle cx="478.701" cy="810.596" r="35.735" style="fill:rgb(128,237,157);stroke:white;stroke-width:7.57px;"/>
                    </g>
                    <g transform="matrix(1,0,0,1,-310.493,-131.207)">
                        <circle cx="478.701" cy="810.596" r="35.735" style="fill:rgb(128,237,157);stroke:white;stroke-width:7.57px;"/>
                    </g>
                    <g transform="matrix(1,0,0,1,-350.422,-111.002)">
                        <circle cx="478.701" cy="810.596" r="35.735" style="fill:rgb(128,237,157);stroke:white;stroke-width:7.57px;"/>
                    </g>
                    <g transform="matrix(1,0,0,1,-320.656,-75.2675)">
                        <circle cx="478.701" cy="810.596" r="35.735" style="fill:rgb(128,237,157);stroke:white;stroke-width:7.57px;"/>
                    </g>
                    <g transform="matrix(0.798835,0,0,0.798835,-188.624,109.23)">
                        <circle cx="478.701" cy="810.596" r="35.735" style="fill:rgb(128,237,157);stroke:white;stroke-width:9.47px;"/>
                    </g>
                    <g transform="matrix(0.798835,0,0,0.798835,-231.547,123.997)">
                        <circle cx="478.701" cy="810.596" r="35.735" style="fill:rgb(128,237,157);stroke:white;stroke-width:9.47px;"/>
                    </g>
                    <g transform="matrix(0.606048,0,0,0.606048,-110.714,287.159)">
                        <circle cx="478.701" cy="810.596" r="35.735" style="fill:rgb(128,237,157);stroke:white;stroke-width:12.48px;"/>
                    </g>
                    <g transform="matrix(1,0,0,1,-181.012,-441.704)">
                        <circle cx="478.701" cy="810.596" r="35.735" style="fill:rgb(128,237,157);stroke:white;stroke-width:7.57px;"/>
                    </g>
                    <g transform="matrix(1,0,0,1,-181.012,-405.969)">
                        <circle cx="478.701" cy="810.596" r="35.735" style="fill:rgb(128,237,157);stroke:white;stroke-width:7.57px;"/>
                    </g>
                    <g transform="matrix(1,0,0,1,-203.695,-355.229)">
                        <circle cx="478.701" cy="810.596" r="35.735" style="fill:rgb(128,237,157);stroke:white;stroke-width:7.57px;"/>
                    </g>
                    <g transform="matrix(1,0,0,1,-122.594,-509.832)">
                        <circle cx="478.701" cy="810.596" r="35.735" style="fill:rgb(128,237,157);stroke:white;stroke-width:7.57px;"/>
                    </g>
                    <g transform="matrix(1,0,0,1,-51.1253,-474.097)">
                        <circle cx="478.701" cy="810.596" r="35.735" style="fill:rgb(128,237,157);stroke:white;stroke-width:7.57px;"/>
                    </g>
                    <g transform="matrix(1,0,0,1,-95.5875,-438.363)">
                        <circle cx="478.701" cy="810.596" r="35.735" style="fill:rgb(128,237,157);stroke:white;stroke-width:7.57px;"/>
                    </g>
                    <g transform="matrix(1,0,0,1,-228.432,-294.575)">
                        <circle cx="478.701" cy="810.596" r="35.735" style="fill:rgb(128,237,157);stroke:white;stroke-width:7.57px;"/>
                    </g>
                    <g transform="matrix(1,0,0,1,-249.187,-166.941)">
                        <circle cx="478.701" cy="810.596" r="35.735" style="fill:rgb(128,237,157);stroke:white;stroke-width:7.57px;"/>
                    </g>
                    <g transform="matrix(0.552105,0,0,0.552105,-24.616,352.542)">
                        <circle cx="478.701" cy="810.596" r="35.735" style="fill:rgb(128,237,157);stroke:white;stroke-width:13.7px;"/>
                    </g>
                    <g transform="matrix(1,0,0,1,-263.564,-111.002)">
                        <circle cx="478.701" cy="810.596" r="35.735" style="fill:rgb(128,237,157);stroke:white;stroke-width:7.57px;"/>
                    </g>
                    <g transform="matrix(1,0,0,1,-204.971,-85.1686)">
                        <circle cx="478.701" cy="810.596" r="35.735" style="fill:rgb(128,237,157);stroke:white;stroke-width:7.57px;"/>
                    </g>
                    <g transform="matrix(1,0,0,1,-207.279,-54.959)">
                        <circle cx="478.701" cy="810.596" r="35.735" style="fill:rgb(128,237,157);stroke:white;stroke-width:7.57px;"/>
                    </g>
                    <g transform="matrix(0.855617,0,0,0.855617,-138.163,117.219)">
                        <circle cx="478.701" cy="810.596" r="35.735" style="fill:rgb(128,237,157);stroke:white;stroke-width:8.84px;"/>
                    </g>
                    <g transform="matrix(1,0,0,1,-208.594,-148.981)">
                        <circle cx="478.701" cy="810.596" r="35.735" style="fill:rgb(128,237,157);stroke:white;stroke-width:7.57px;"/>
                    </g>
                    <g transform="matrix(0.855617,0,0,0.843736,-167.909,78.1892)">
                        <circle cx="478.701" cy="810.596" r="35.735" style="fill:rgb(128,237,157);stroke:white;stroke-width:8.9px;"/>
                    </g>
                    <g transform="matrix(0.855617,0,0,0.843736,-199.313,101.859)">
                        <circle cx="478.701" cy="810.596" r="35.735" style="fill:rgb(128,237,157);stroke:white;stroke-width:8.9px;"/>
                    </g>
                    <g transform="matrix(1,0,0,1,-34.7669,-418.816)">
                        <circle cx="478.701" cy="810.596" r="35.735" style="fill:rgb(128,237,157);stroke:white;stroke-width:7.57px;"/>
                    </g>
                    <g transform="matrix(1,0,0,1,-24.1183,-383.081)">
                        <circle cx="478.701" cy="810.596" r="35.735" style="fill:rgb(128,237,157);stroke:white;stroke-width:7.57px;"/>
                    </g>
                    <g transform="matrix(1,0,0,1,-24.1183,-331.448)">
                        <circle cx="478.701" cy="810.596" r="35.735" style="fill:rgb(128,237,157);stroke:white;stroke-width:7.57px;"/>
                    </g>
                    <g transform="matrix(1,0,0,1,-34.7669,-282.815)">
                        <circle cx="478.701" cy="810.596" r="35.735" style="fill:rgb(128,237,157);stroke:white;stroke-width:7.57px;"/>
                    </g>
                    <g transform="matrix(0.504396,0,0,0.504396,187.779,141.756)">
                        <circle cx="478.701" cy="810.596" r="35.735" style="fill:rgb(128,237,157);stroke:white;stroke-width:15px;"/>
                    </g>
                </g>
                <g transform="matrix(-1.10138,0,0,1.10138,1045.36,-6.635)">
                    <g transform="matrix(1,0,0,1,-59.8529,-244.079)">
                        <circle cx="478.701" cy="810.596" r="35.735" style="fill:rgb(128,237,157);stroke:white;stroke-width:7.57px;"/>
                    </g>
                    <g transform="matrix(1,0,0,1,-314.688,-259.978)">
                        <circle cx="478.701" cy="810.596" r="35.735" style="fill:rgb(128,237,157);stroke:white;stroke-width:7.57px;"/>
                    </g>
                    <g transform="matrix(1,0,0,1,-354.617,-239.774)">
                        <circle cx="478.701" cy="810.596" r="35.735" style="fill:rgb(128,237,157);stroke:white;stroke-width:7.57px;"/>
                    </g>
                    <g transform="matrix(0.801777,0,0,0.801777,-262.616,-142.118)">
                        <circle cx="478.701" cy="810.596" r="35.735" style="fill:rgb(128,237,157);stroke:white;stroke-width:9.44px;"/>
                    </g>
                    <g transform="matrix(0.801777,0,0,0.801777,-258.613,-30.2395)">
                        <circle cx="478.701" cy="810.596" r="35.735" style="fill:rgb(128,237,157);stroke:white;stroke-width:9.44px;"/>
                    </g>
                    <g transform="matrix(1,0,0,1,-100.739,-561.754)">
                        <circle cx="478.701" cy="810.596" r="35.735" style="fill:rgb(128,237,157);stroke:white;stroke-width:7.57px;"/>
                    </g>
                    <g transform="matrix(1,0,0,1,-155.375,-589.324)">
                        <circle cx="478.701" cy="810.596" r="35.735" style="fill:rgb(128,237,157);stroke:white;stroke-width:7.57px;"/>
                    </g>
                    <g transform="matrix(1,0,0,1,-216.747,-589.324)">
                        <circle cx="478.701" cy="810.596" r="35.735" style="fill:rgb(128,237,157);stroke:white;stroke-width:7.57px;"/>
                    </g>
                    <g transform="matrix(0.855617,0,0,0.855617,-178.206,-484.3)">
                        <circle cx="478.701" cy="810.596" r="35.735" style="fill:rgb(128,237,157);stroke:white;stroke-width:8.84px;"/>
                    </g>
                    <g transform="matrix(0.801777,0,0,0.801777,-180.275,-401.875)">
                        <circle cx="478.701" cy="810.596" r="35.735" style="fill:rgb(128,237,157);stroke:white;stroke-width:9.44px;"/>
                    </g>
                    <g transform="matrix(1,0,0,1,-310.899,-517.854)">
                        <circle cx="478.701" cy="810.596" r="35.735" style="fill:rgb(128,237,157);stroke:white;stroke-width:7.57px;"/>
                    </g>
                    <g transform="matrix(1,0,0,1,-326.031,-477.438)">
                        <circle cx="478.701" cy="810.596" r="35.735" style="fill:rgb(128,237,157);stroke:white;stroke-width:7.57px;"/>
                    </g>
                    <g transform="matrix(1,0,0,1,-346.634,-426.699)">
                        <circle cx="478.701" cy="810.596" r="35.735" style="fill:rgb(128,237,157);stroke:white;stroke-width:7.57px;"/>
                    </g>
                    <g transform="matrix(0.855617,0,0,0.855617,-321.144,-268.769)">
                        <circle cx="478.701" cy="810.596" r="35.735" style="fill:rgb(128,237,157);stroke:white;stroke-width:8.84px;"/>
                    </g>
                    <g transform="matrix(0.798835,0,0,0.798835,-282.671,-176.079)">
                        <circle cx="478.701" cy="810.596" r="35.735" style="fill:rgb(128,237,157);stroke:white;stroke-width:9.47px;"/>
                    </g>
                    <g transform="matrix(1,0,0,1,-216.747,-545.567)">
                        <circle cx="478.701" cy="810.596" r="35.735" style="fill:rgb(128,237,157);stroke:white;stroke-width:7.57px;"/>
                    </g>
                    <g transform="matrix(1,0,0,1,-239.43,-498.168)">
                        <circle cx="478.701" cy="810.596" r="35.735" style="fill:rgb(128,237,157);stroke:white;stroke-width:7.57px;"/>
                    </g>
                    <g transform="matrix(1,0,0,1,-275.165,-477.438)">
                        <circle cx="478.701" cy="810.596" r="35.735" style="fill:rgb(128,237,157);stroke:white;stroke-width:7.57px;"/>
                    </g>
                    <g transform="matrix(1,0,0,1,-288.216,-426.699)">
                        <circle cx="478.701" cy="810.596" r="35.735" style="fill:rgb(128,237,157);stroke:white;stroke-width:7.57px;"/>
                    </g>
                    <g transform="matrix(1,0,0,1,-317.425,-390.964)">
                        <circle cx="478.701" cy="810.596" r="35.735" style="fill:rgb(128,237,157);stroke:white;stroke-width:7.57px;"/>
                    </g>
                    <g transform="matrix(1,0,0,1,-333.682,-357.77)">
                        <circle cx="478.701" cy="810.596" r="35.735" style="fill:rgb(128,237,157);stroke:white;stroke-width:7.57px;"/>
                    </g>
                    <g transform="matrix(0.490396,0,0,0.490396,-109.212,82.7735)">
                        <circle cx="478.701" cy="810.596" r="35.735" style="fill:rgb(128,237,157);stroke:white;stroke-width:15.43px;"/>
                    </g>
                    <g transform="matrix(1,0,0,1,-170.01,-526.02)">
                        <circle cx="478.701" cy="810.596" r="35.735" style="fill:rgb(128,237,157);stroke:white;stroke-width:7.57px;"/>
                    </g>
                    <g transform="matrix(1,0,0,1,-70.5015,-383.081)">
                        <circle cx="478.701" cy="810.596" r="35.735" style="fill:rgb(128,237,157);stroke:white;stroke-width:7.57px;"/>
                    </g>
                    <g transform="matrix(1,0,0,1,-120.937,-402.917)">
                        <circle cx="478.701" cy="810.596" r="35.735" style="fill:rgb(128,237,157);stroke:white;stroke-width:7.57px;"/>
                    </g>
                    <g transform="matrix(1,0,0,1,-49.4675,-346.331)">
                        <circle cx="478.701" cy="810.596" r="35.735" style="fill:rgb(128,237,157);stroke:white;stroke-width:7.57px;"/>
                    </g>
                    <g transform="matrix(1,0,0,1,-112.873,-346.331)">
                        <circle cx="478.701" cy="810.596" r="35.735" style="fill:rgb(128,237,157);stroke:white;stroke-width:7.57px;"/>
                    </g>
                    <g transform="matrix(1,0,0,1,-59.8529,-295.713)">
                        <circle cx="478.701" cy="810.596" r="35.735" style="fill:rgb(128,237,157);stroke:white;stroke-width:7.57px;"/>
                    </g>
                    <g transform="matrix(1,0,0,1,-95.5875,-259.978)">
                        <circle cx="478.701" cy="810.596" r="35.735" style="fill:rgb(128,237,157);stroke:white;stroke-width:7.57px;"/>
                    </g>
                    <g transform="matrix(1,0,0,1,-138.961,-239.127)">
                        <circle cx="478.701" cy="810.596" r="35.735" style="fill:rgb(128,237,157);stroke:white;stroke-width:7.57px;"/>
                    </g>
                    <g transform="matrix(1,0,0,1,-187.202,-208.581)">
                        <circle cx="478.701" cy="810.596" r="35.735" style="fill:rgb(128,237,157);stroke:white;stroke-width:7.57px;"/>
                    </g>
                    <g transform="matrix(1,0,0,1,-95.5875,-205.357)">
                        <circle cx="478.701" cy="810.596" r="35.735" style="fill:rgb(128,237,157);stroke:white;stroke-width:7.57px;"/>
                    </g>
                    <g transform="matrix(1,0,0,1,-84.8913,-157.669)">
                        <circle cx="478.701" cy="810.596" r="35.735" style="fill:rgb(128,237,157);stroke:white;stroke-width:7.57px;"/>
                    </g>
                    <g transform="matrix(0.507216,0,0,0.507216,143.152,324.181)">
                        <circle cx="478.701" cy="810.596" r="35.735" style="fill:rgb(128,237,157);stroke:white;stroke-width:14.92px;"/>
                    </g>
                    <g transform="matrix(1,0,0,1,-156.36,-182.471)">
                        <circle cx="478.701" cy="810.596" r="35.735" style="fill:rgb(128,237,157);stroke:white;stroke-width:7.57px;"/>
                    </g>
                    <g transform="matrix(1,0,0,1,-138.961,-146.737)">
                        <circle cx="478.701" cy="810.596" r="35.735" style="fill:rgb(128,237,157);stroke:white;stroke-width:7.57px;"/>
                    </g>
                    <g transform="matrix(1,0,0,1,-147.68,-111.002)">
                        <circle cx="478.701" cy="810.596" r="35.735" style="fill:rgb(128,237,157);stroke:white;stroke-width:7.57px;"/>
                    </g>
                    <g transform="matrix(1,0,0,1,-166.385,-75.2675)">
                        <circle cx="478.701" cy="810.596" r="35.735" style="fill:rgb(128,237,157);stroke:white;stroke-width:7.57px;"/>
                    </g>
                    <g transform="matrix(0.855617,0,0,0.749687,-92.1093,154.425)">
                        <circle cx="478.701" cy="810.596" r="35.735" style="fill:rgb(128,237,157);stroke:white;stroke-width:9.41px;"/>
                    </g>
                    <g transform="matrix(1,0,0,1,-111.945,-121.934)">
                        <circle cx="478.701" cy="810.596" r="35.735" style="fill:rgb(128,237,157);stroke:white;stroke-width:7.57px;"/>
                    </g>
                    <g transform="matrix(0.855617,0,0,0.888043,-66.6936,19.4852)">
                        <circle cx="478.701" cy="810.596" r="35.735" style="fill:rgb(128,237,157);stroke:white;stroke-width:8.68px;"/>
                    </g>
                    <g transform="matrix(0.801777,0,0,0.801777,-60.6235,161.425)">
                        <circle cx="478.701" cy="810.596" r="35.735" style="fill:rgb(128,237,157);stroke:white;stroke-width:9.44px;"/>
                    </g>
                    <g transform="matrix(1,0,0,1,-131.322,-295.713)">
                        <circle cx="478.701" cy="810.596" r="35.735" style="fill:rgb(128,237,157);stroke:white;stroke-width:7.57px;"/>
                    </g>
                    <g transform="matrix(1,0,0,1,-174.696,-286.301)">
                        <circle cx="478.701" cy="810.596" r="35.735" style="fill:rgb(128,237,157);stroke:white;stroke-width:7.57px;"/>
                    </g>
                    <g transform="matrix(1,0,0,1,-227.83,-238.411)">
                        <circle cx="478.701" cy="810.596" r="35.735" style="fill:rgb(128,237,157);stroke:white;stroke-width:7.57px;"/>
                    </g>
                    <g transform="matrix(1,0,0,1,-140.969,-346.331)">
                        <circle cx="478.701" cy="810.596" r="35.735" style="fill:rgb(128,237,157);stroke:white;stroke-width:7.57px;"/>
                    </g>
                    <g transform="matrix(1,0,0,1,-179.782,-490.285)">
                        <circle cx="478.701" cy="810.596" r="35.735" style="fill:rgb(128,237,157);stroke:white;stroke-width:7.57px;"/>
                    </g>
                    <g transform="matrix(1,0,0,1,-216.747,-441.704)">
                        <circle cx="478.701" cy="810.596" r="35.735" style="fill:rgb(128,237,157);stroke:white;stroke-width:7.57px;"/>
                    </g>
                    <g transform="matrix(1,0,0,1,-239.43,-390.964)">
                        <circle cx="478.701" cy="810.596" r="35.735" style="fill:rgb(128,237,157);stroke:white;stroke-width:7.57px;"/>
                    </g>
                    <g transform="matrix(1,0,0,1,-275.165,-346.331)">
                        <circle cx="478.701" cy="810.596" r="35.735" style="fill:rgb(128,237,157);stroke:white;stroke-width:7.57px;"/>
                    </g>
                    <g transform="matrix(1,0,0,1,-299.901,-310.596)">
                        <circle cx="478.701" cy="810.596" r="35.735" style="fill:rgb(128,237,157);stroke:white;stroke-width:7.57px;"/>
                    </g>
                    <g transform="matrix(1,0,0,1,-339.83,-290.392)">
                        <circle cx="478.701" cy="810.596" r="35.735" style="fill:rgb(128,237,157);stroke:white;stroke-width:7.57px;"/>
                    </g>
                    <g transform="matrix(1,0,0,1,-274.758,-238.411)">
                        <circle cx="478.701" cy="810.596" r="35.735" style="fill:rgb(128,237,157);stroke:white;stroke-width:7.57px;"/>
                    </g>
                    <g transform="matrix(1,0,0,1,-314.688,-218.206)">
                        <circle cx="478.701" cy="810.596" r="35.735" style="fill:rgb(128,237,157);stroke:white;stroke-width:7.57px;"/>
                    </g>
                    <g transform="matrix(1,0,0,1,-284.922,-182.471)">
                        <circle cx="478.701" cy="810.596" r="35.735" style="fill:rgb(128,237,157);stroke:white;stroke-width:7.57px;"/>
                    </g>
                    <g transform="matrix(1,0,0,1,-324.851,-162.267)">
                        <circle cx="478.701" cy="810.596" r="35.735" style="fill:rgb(128,237,157);stroke:white;stroke-width:7.57px;"/>
                    </g>
                    <g transform="matrix(1,0,0,1,-310.493,-131.207)">
                        <circle cx="478.701" cy="810.596" r="35.735" style="fill:rgb(128,237,157);stroke:white;stroke-width:7.57px;"/>
                    </g>
                    <g transform="matrix(1,0,0,1,-350.422,-111.002)">
                        <circle cx="478.701" cy="810.596" r="35.735" style="fill:rgb(128,237,157);stroke:white;stroke-width:7.57px;"/>
                    </g>
                    <g transform="matrix(1,0,0,1,-320.656,-75.2675)">
                        <circle cx="478.701" cy="810.596" r="35.735" style="fill:rgb(128,237,157);stroke:white;stroke-width:7.57px;"/>
                    </g>
                    <g transform="matrix(0.798835,0,0,0.798835,-188.624,109.23)">
                        <circle cx="478.701" cy="810.596" r="35.735" style="fill:rgb(128,237,157);stroke:white;stroke-width:9.47px;"/>
                    </g>
                    <g transform="matrix(0.798835,0,0,0.798835,-231.547,123.997)">
                        <circle cx="478.701" cy="810.596" r="35.735" style="fill:rgb(128,237,157);stroke:white;stroke-width:9.47px;"/>
                    </g>
                    <g transform="matrix(0.606048,0,0,0.606048,-110.714,287.159)">
                        <circle cx="478.701" cy="810.596" r="35.735" style="fill:rgb(128,237,157);stroke:white;stroke-width:12.48px;"/>
                    </g>
                    <g transform="matrix(1,0,0,1,-181.012,-441.704)">
                        <circle cx="478.701" cy="810.596" r="35.735" style="fill:rgb(128,237,157);stroke:white;stroke-width:7.57px;"/>
                    </g>
                    <g transform="matrix(1,0,0,1,-181.012,-405.969)">
                        <circle cx="478.701" cy="810.596" r="35.735" style="fill:rgb(128,237,157);stroke:white;stroke-width:7.57px;"/>
                    </g>
                    <g transform="matrix(1,0,0,1,-203.695,-355.229)">
                        <circle cx="478.701" cy="810.596" r="35.735" style="fill:rgb(128,237,157);stroke:white;stroke-width:7.57px;"/>
                    </g>
                    <g transform="matrix(1,0,0,1,-122.594,-509.832)">
                        <circle cx="478.701" cy="810.596" r="35.735" style="fill:rgb(128,237,157);stroke:white;stroke-width:7.57px;"/>
                    </g>
                    <g transform="matrix(1,0,0,1,-51.1253,-474.097)">
                        <circle cx="478.701" cy="810.596" r="35.735" style="fill:rgb(128,237,157);stroke:white;stroke-width:7.57px;"/>
                    </g>
                    <g transform="matrix(1,0,0,1,-95.5875,-438.363)">
                        <circle cx="478.701" cy="810.596" r="35.735" style="fill:rgb(128,237,157);stroke:white;stroke-width:7.57px;"/>
                    </g>
                    <g transform="matrix(1,0,0,1,-228.432,-294.575)">
                        <circle cx="478.701" cy="810.596" r="35.735" style="fill:rgb(128,237,157);stroke:white;stroke-width:7.57px;"/>
                    </g>
                    <g transform="matrix(1,0,0,1,-249.187,-166.941)">
                        <circle cx="478.701" cy="810.596" r="35.735" style="fill:rgb(128,237,157);stroke:white;stroke-width:7.57px;"/>
                    </g>
                    <g transform="matrix(0.552105,0,0,0.552105,-24.616,352.542)">
                        <circle cx="478.701" cy="810.596" r="35.735" style="fill:rgb(128,237,157);stroke:white;stroke-width:13.7px;"/>
                    </g>
                    <g transform="matrix(1,0,0,1,-263.564,-111.002)">
                        <circle cx="478.701" cy="810.596" r="35.735" style="fill:rgb(128,237,157);stroke:white;stroke-width:7.57px;"/>
                    </g>
                    <g transform="matrix(1,0,0,1,-204.971,-85.1686)">
                        <circle cx="478.701" cy="810.596" r="35.735" style="fill:rgb(128,237,157);stroke:white;stroke-width:7.57px;"/>
                    </g>
                    <g transform="matrix(1,0,0,1,-207.279,-54.959)">
                        <circle cx="478.701" cy="810.596" r="35.735" style="fill:rgb(128,237,157);stroke:white;stroke-width:7.57px;"/>
                    </g>
                    <g transform="matrix(0.855617,0,0,0.855617,-138.163,117.219)">
                        <circle cx="478.701" cy="810.596" r="35.735" style="fill:rgb(128,237,157);stroke:white;stroke-width:8.84px;"/>
                    </g>
                    <g transform="matrix(1,0,0,1,-208.594,-148.981)">
                        <circle cx="478.701" cy="810.596" r="35.735" style="fill:rgb(128,237,157);stroke:white;stroke-width:7.57px;"/>
                    </g>
                    <g transform="matrix(0.855617,0,0,0.843736,-167.909,78.1892)">
                        <circle cx="478.701" cy="810.596" r="35.735" style="fill:rgb(128,237,157);stroke:white;stroke-width:8.9px;"/>
                    </g>
                    <g transform="matrix(0.855617,0,0,0.843736,-199.313,101.859)">
                        <circle cx="478.701" cy="810.596" r="35.735" style="fill:rgb(128,237,157);stroke:white;stroke-width:8.9px;"/>
                    </g>
                    <g transform="matrix(1,0,0,1,-34.7669,-418.816)">
                        <circle cx="478.701" cy="810.596" r="35.735" style="fill:rgb(128,237,157);stroke:white;stroke-width:7.57px;"/>
                    </g>
                    <g transform="matrix(1,0,0,1,-24.1183,-383.081)">
                        <circle cx="478.701" cy="810.596" r="35.735" style="fill:rgb(128,237,157);stroke:white;stroke-width:7.57px;"/>
                    </g>
                    <g transform="matrix(1,0,0,1,-24.1183,-331.448)">
                        <circle cx="478.701" cy="810.596" r="35.735" style="fill:rgb(128,237,157);stroke:white;stroke-width:7.57px;"/>
                    </g>
                    <g transform="matrix(1,0,0,1,-34.7669,-282.815)">
                        <circle cx="478.701" cy="810.596" r="35.735" style="fill:rgb(128,237,157);stroke:white;stroke-width:7.57px;"/>
                    </g>
                    <g transform="matrix(0.504396,0,0,0.504396,187.779,141.756)">
                        <circle cx="478.701" cy="810.596" r="35.735" style="fill:rgb(128,237,157);stroke:white;stroke-width:15px;"/>
                    </g>
                </g>
                <g transform="matrix(1.10138,0,0,1.10138,-45.3606,-5.13671)">
                    <path d="M500,75.938C500,75.938 521.138,75.451 521.138,81.69C520.912,126.579 520.397,214.234 535.106,234.365C544.294,252.123 559.365,277.871 581.912,284.726C644.024,283.692 647.092,241.347 682.391,236.541C700.568,234.067 737.308,241.271 748.471,229.564C752.857,224.964 768.424,219.597 787.547,223.359C770.413,222.9 759.046,231.71 747.782,238.878C736.518,246.046 709.482,234.672 672.3,252.66C644.429,281.691 634.665,294.87 599.655,297.572C609.7,310.413 683.797,338.12 703.208,344.882C715.228,346.059 755.128,337.114 804.881,349.625C825.182,355.91 857.903,368.961 857.903,368.961C857.903,368.961 831.976,359.714 785.768,352.325C739.56,344.937 729.12,356.753 729.12,356.753C729.12,356.753 736.097,368.156 768.084,379.604C803.287,396.154 805.232,422.335 826.768,443.872C844.381,461.485 842.161,457.922 857.701,457.922C868.194,457.922 885.287,468.415 904.649,500C885.258,472.27 859.333,458.971 843.848,462.708C844.226,518.158 861.527,542.653 861.527,542.653C861.527,542.653 846.206,530.936 840.956,491.074C835.706,451.212 815.869,444.335 805.609,426.729C805.244,447.786 797.781,488.758 801.177,512.096C804.49,534.863 818.666,540.264 817.992,540.092C817.992,540.092 790.018,527.191 794.304,493.429C798.59,459.667 802.748,425.199 781.386,401.404C765.931,384.189 684.809,363.056 675.378,360.508C675.161,360.416 674.948,360.347 674.738,360.301C674.234,360.192 674.486,360.267 675.378,360.508C683.099,363.772 694.665,396.004 700.578,442.096C706.655,489.477 750.96,520.699 758.958,532.642C771.065,547.209 794.308,588.67 802.659,646.124C804.007,655.396 819.424,668.416 828.134,707.042C837.146,743.34 817.784,778.002 817.784,778.002C817.784,778.002 822.658,755.741 819.143,717.627C816.528,689.272 800.316,667.115 800.316,667.115C800.316,667.115 802.085,669.926 799.872,700.508C796.178,751.541 767.433,784.766 753.394,796.312C758.906,783.93 797.034,743.982 787.295,665.031C782.149,623.31 768.927,581.028 750.192,552.473C733.474,526.992 711.428,513.223 701.637,508.189C699.64,527.669 659.587,570.189 649.5,589.652C639.412,609.116 641.9,624.986 641.9,643.666C641.9,662.346 663.473,683.557 678.149,724.213C692.826,764.87 676.462,829.722 676.462,829.722C676.462,829.722 676.053,824.488 680.007,781.509C683.961,738.53 647.882,686.83 638.84,669.804C640.057,684.552 613.256,719.948 613.256,719.948C613.256,719.948 622.239,705.131 629.011,677.836C635.783,650.541 629.613,650.559 633.097,601.294C636.581,552.029 675.689,528.072 683.831,500C691.972,471.928 672.561,443.571 672.804,449.137C673.046,454.703 662.316,480.257 653.636,487.672C637.797,497.359 626.263,517.256 626.263,517.256C626.263,517.256 631.573,501.032 652.707,479.841C665.595,466.918 671.343,444.452 667.945,413.6C664.181,379.414 633.78,363.387 613.021,346.334C596.277,367.009 600.674,405.761 575.371,440.19C550.068,474.618 568.511,561.279 568.511,561.279C568.511,561.279 561.935,561.692 554.824,515.765C547.712,469.838 573.251,418.16 578.486,404.621C583.721,391.083 580.499,357.438 590.591,334.251C560.725,324.486 500.815,278.954 500.017,247.119C499.22,278.954 439.292,324.486 409.427,334.251C419.519,357.438 416.296,391.083 421.532,404.621C426.767,418.16 452.305,469.838 445.194,515.765C438.082,561.692 431.507,561.279 431.507,561.279C431.507,561.279 449.95,474.618 424.647,440.19C399.344,405.761 403.74,367.009 386.996,346.334C366.238,363.387 335.837,379.414 332.072,413.6C328.675,444.452 334.422,466.918 347.31,479.841C368.445,501.032 373.754,517.256 373.754,517.256C373.754,517.256 362.221,497.359 346.381,487.672C337.701,480.257 326.972,454.703 327.214,449.137C327.456,443.571 308.046,471.928 316.187,500C324.328,528.072 363.436,552.029 366.92,601.294C370.404,650.559 364.235,650.541 371.007,677.836C377.778,705.131 386.762,719.948 386.762,719.948C386.762,719.948 359.961,684.552 361.178,669.804C352.135,686.83 316.057,738.53 320.011,781.509C323.965,824.488 323.555,829.722 323.555,829.722C323.555,829.722 307.192,764.87 321.868,724.213C336.544,683.557 358.118,662.346 358.118,643.666C358.118,624.986 360.605,609.116 350.518,589.652C340.431,570.189 300.377,527.669 298.38,508.189C288.59,513.223 266.543,526.992 249.825,552.473C231.09,581.028 217.868,623.31 212.722,665.031C202.984,743.982 241.111,783.93 246.624,796.312C232.585,784.766 203.839,751.541 200.146,700.508C197.932,669.926 199.701,667.115 199.701,667.115C199.701,667.115 183.489,689.272 180.874,717.627C177.36,755.741 182.233,778.002 182.233,778.002C182.233,778.002 162.872,743.34 171.883,707.042C180.594,668.416 196.01,655.396 197.358,646.124C205.709,588.67 228.953,547.209 241.06,532.642C249.058,520.699 293.362,489.477 299.44,442.096C305.353,396.004 316.919,363.772 324.64,360.508C325.532,360.267 325.783,360.192 325.279,360.301C325.069,360.347 324.856,360.416 324.64,360.508C315.208,363.056 234.087,384.189 218.631,401.404C197.269,425.199 201.427,459.667 205.713,493.429C210,527.191 182.026,540.092 182.026,540.092C181.351,540.264 195.528,534.863 198.84,512.096C202.236,488.758 194.774,447.786 194.409,426.729C184.149,444.335 164.311,451.212 159.061,491.074C153.811,530.936 138.49,542.653 138.49,542.653C138.49,542.653 155.792,518.158 156.17,462.708C140.684,458.971 114.759,472.27 95.368,500C114.731,468.415 131.824,457.922 142.316,457.922C157.856,457.922 155.636,461.485 173.249,443.872C194.786,422.335 196.731,396.154 231.934,379.604C263.921,368.156 270.897,356.753 270.897,356.753C270.897,356.753 260.457,344.937 214.249,352.325C168.041,359.714 142.114,368.961 142.114,368.961C142.114,368.961 174.836,355.91 195.137,349.625C244.889,337.114 284.789,346.059 296.809,344.882C316.22,338.12 390.318,310.413 400.362,297.572C365.353,294.87 355.589,281.691 327.717,252.66C290.536,234.672 263.499,246.046 252.236,238.878C240.972,231.71 229.605,222.9 212.471,223.359C231.593,219.597 247.161,224.964 251.547,229.564C262.71,241.271 299.449,234.067 317.626,236.541C352.926,241.347 355.994,283.692 418.105,284.726C440.653,277.871 455.723,252.123 464.912,234.365C479.621,214.234 479.106,126.579 478.88,81.69C478.88,75.451 500,75.938 500,75.938Z" style="fill:rgb(167,81,54);stroke:white;stroke-width:0.91px;"/>
                </g>
            </g>
        </g>
    </g>
</svg>
