<?xml version="1.0" encoding="UTF-8" standalone="no"?>
<!DOCTYPE svg PUBLIC "-//W3C//DTD SVG 1.1//EN" "http://www.w3.org/Graphics/SVG/1.1/DTD/svg11.dtd">
<svg width="100%" height="100%" viewBox="0 0 220 220" version="1.1" xmlns="http://www.w3.org/2000/svg" xmlns:xlink="http://www.w3.org/1999/xlink" xml:space="preserve" xmlns:serif="http://www.serif.com/" style="fill-rule:evenodd;clip-rule:evenodd;stroke-linejoin:round;stroke-miterlimit:2;">
    <g transform="matrix(1,0,0,1,-1207,-41)">
        <g id="Artboard1" transform="matrix(1,0,0,1,1075.22,0)">
            <rect x="0" y="0" width="1000" height="1000" style="fill:none;"/>
            <g transform="matrix(0.600968,0.600968,-0.600968,0.600968,-445.589,-736.52)">
                <path d="M1417.39,117.685C1417.39,102.082 1411.2,87.119 1400.16,76.086C1389.13,65.053 1374.17,58.855 1358.57,58.855L1261.54,58.855C1245.93,58.855 1230.97,65.053 1219.94,76.086C1208.9,87.119 1202.7,102.082 1202.7,117.685L1202.7,214.714C1202.7,230.317 1208.9,245.281 1219.94,256.314C1230.97,267.347 1245.93,273.545 1261.54,273.545L1358.57,273.545C1374.17,273.545 1389.13,267.347 1400.16,256.314C1411.2,245.281 1417.39,230.317 1417.39,214.714L1417.39,117.685Z" style="fill:white;"/>
            </g>
            <g transform="matrix(1,0,0,1,-1070.43,-202.331)">
                <g transform="matrix(83.3333,0,0,83.3333,1208.01,382.429)">
                    <path d="M0.48,-0.251L0.558,-0.227C0.541,-0.147 0.511,-0.087 0.468,-0.047C0.424,-0.008 0.372,0.012 0.31,0.012C0.256,0.012 0.209,-0.001 0.171,-0.028C0.132,-0.054 0.101,-0.097 0.076,-0.155C0.051,-0.214 0.039,-0.283 0.039,-0.363C0.039,-0.442 0.051,-0.508 0.076,-0.563C0.101,-0.617 0.134,-0.658 0.176,-0.686C0.218,-0.714 0.265,-0.728 0.316,-0.728C0.373,-0.728 0.422,-0.71 0.462,-0.675C0.503,-0.64 0.532,-0.588 0.548,-0.52L0.472,-0.498C0.446,-0.597 0.393,-0.647 0.315,-0.647C0.276,-0.647 0.242,-0.637 0.213,-0.617C0.185,-0.597 0.162,-0.566 0.145,-0.523C0.128,-0.481 0.119,-0.428 0.119,-0.363C0.119,-0.265 0.136,-0.191 0.171,-0.142C0.205,-0.093 0.251,-0.069 0.309,-0.069C0.351,-0.069 0.387,-0.084 0.418,-0.114C0.449,-0.144 0.47,-0.19 0.48,-0.251Z" style="fill-rule:nonzero;"/>
                </g>
                <g transform="matrix(83.3333,0,0,83.3333,1253.32,382.429)">
                    <path d="M0.026,-0.259C0.026,-0.349 0.045,-0.416 0.082,-0.462C0.12,-0.507 0.167,-0.53 0.225,-0.53C0.282,-0.53 0.329,-0.507 0.367,-0.462C0.405,-0.416 0.424,-0.351 0.424,-0.265C0.424,-0.172 0.406,-0.102 0.368,-0.057C0.331,-0.011 0.283,0.012 0.225,0.012C0.168,0.012 0.121,-0.011 0.083,-0.057C0.045,-0.103 0.026,-0.17 0.026,-0.259ZM0.1,-0.259C0.1,-0.192 0.112,-0.142 0.136,-0.11C0.161,-0.077 0.191,-0.061 0.227,-0.061C0.261,-0.061 0.29,-0.077 0.314,-0.11C0.338,-0.143 0.351,-0.193 0.351,-0.259C0.351,-0.326 0.338,-0.376 0.314,-0.408C0.29,-0.441 0.259,-0.458 0.223,-0.458C0.189,-0.458 0.16,-0.441 0.136,-0.408C0.112,-0.375 0.1,-0.326 0.1,-0.259Z" style="fill-rule:nonzero;"/>
                </g>
                <g transform="matrix(83.3333,0,0,83.3333,1286.33,382.429)">
                    <path d="M0.172,0L0.01,-0.519L0.086,-0.519L0.178,-0.208C0.188,-0.173 0.197,-0.138 0.205,-0.104C0.211,-0.131 0.22,-0.164 0.231,-0.202L0.326,-0.519L0.4,-0.519L0.239,0L0.172,0Z" style="fill-rule:nonzero;"/>
                </g>
                <g transform="matrix(83.3333,0,0,83.3333,1316.51,382.429)">
                    <path d="M0.053,-0.615L0.053,-0.716L0.125,-0.716L0.125,-0.615L0.053,-0.615ZM0.053,0L0.053,-0.519L0.125,-0.519L0.125,0L0.053,0Z" style="fill-rule:nonzero;"/>
                </g>
                <g transform="matrix(83.3333,0,0,83.3333,1326.68,382.429)">
                    <path d="M0.329,0L0.329,-0.065C0.316,-0.04 0.299,-0.021 0.278,-0.008C0.258,0.005 0.236,0.012 0.212,0.012C0.162,0.012 0.118,-0.012 0.082,-0.059C0.045,-0.107 0.027,-0.173 0.027,-0.259C0.027,-0.318 0.035,-0.368 0.051,-0.409C0.068,-0.45 0.089,-0.481 0.116,-0.5C0.144,-0.52 0.174,-0.53 0.207,-0.53C0.231,-0.53 0.253,-0.524 0.273,-0.511C0.294,-0.499 0.31,-0.481 0.324,-0.459L0.324,-0.716L0.396,-0.716L0.396,0L0.329,0ZM0.101,-0.259C0.101,-0.192 0.112,-0.142 0.135,-0.109C0.159,-0.077 0.186,-0.061 0.217,-0.061C0.247,-0.061 0.274,-0.076 0.296,-0.107C0.319,-0.139 0.33,-0.186 0.33,-0.249C0.33,-0.322 0.319,-0.375 0.296,-0.408C0.274,-0.441 0.246,-0.458 0.211,-0.458C0.181,-0.458 0.155,-0.442 0.133,-0.41C0.111,-0.378 0.101,-0.327 0.101,-0.259Z" style="fill-rule:nonzero;"/>
                </g>
                <g transform="matrix(83.3333,0,0,83.3333,1353.69,382.429)">
                    <path d="M0.304,0L0.232,0L0.232,-0.56C0.215,-0.541 0.193,-0.521 0.165,-0.5C0.137,-0.48 0.111,-0.465 0.088,-0.454L0.088,-0.539C0.128,-0.562 0.163,-0.59 0.193,-0.623C0.224,-0.655 0.245,-0.688 0.257,-0.719L0.304,-0.719L0.304,0Z" style="fill:rgb(255,56,96);fill-rule:nonzero;"/>
                </g>
                <g transform="matrix(83.3333,0,0,83.3333,1377.69,382.429)">
                    <path d="M0.043,-0.166L0.113,-0.173C0.124,-0.098 0.156,-0.06 0.21,-0.06C0.235,-0.06 0.256,-0.068 0.276,-0.085C0.296,-0.101 0.313,-0.13 0.326,-0.172C0.34,-0.214 0.347,-0.263 0.347,-0.319L0.347,-0.337C0.332,-0.308 0.312,-0.285 0.286,-0.268C0.261,-0.251 0.235,-0.243 0.208,-0.243C0.161,-0.243 0.119,-0.264 0.085,-0.305C0.05,-0.347 0.033,-0.404 0.033,-0.477C0.033,-0.552 0.051,-0.611 0.087,-0.654C0.123,-0.697 0.166,-0.719 0.218,-0.719C0.254,-0.719 0.288,-0.707 0.32,-0.683C0.351,-0.659 0.376,-0.623 0.393,-0.576C0.41,-0.529 0.419,-0.462 0.419,-0.374C0.419,-0.275 0.41,-0.199 0.391,-0.145C0.373,-0.09 0.347,-0.05 0.316,-0.025C0.284,0 0.248,0.012 0.209,0.012C0.164,0.012 0.127,-0.003 0.097,-0.033C0.067,-0.064 0.049,-0.108 0.043,-0.166ZM0.339,-0.481C0.339,-0.533 0.327,-0.573 0.305,-0.602C0.282,-0.631 0.256,-0.646 0.226,-0.646C0.195,-0.646 0.168,-0.63 0.143,-0.599C0.119,-0.568 0.107,-0.526 0.107,-0.474C0.107,-0.427 0.118,-0.39 0.142,-0.362C0.165,-0.334 0.192,-0.32 0.225,-0.32C0.257,-0.32 0.284,-0.334 0.306,-0.362C0.328,-0.39 0.339,-0.43 0.339,-0.481Z" style="fill:rgb(255,56,96);fill-rule:nonzero;"/>
                </g>
            </g>
        </g>
    </g>
</svg>
